<?xml version="1.0" encoding="UTF-8" standalone="no"?>
<!DOCTYPE svg PUBLIC "-//W3C//DTD SVG 20010904//EN"
"http://www.w3.org/TR/2001/REC-SVG-20010904/DTD/svg10.dtd">
<!-- Created with Sodipodi ("http://www.sodipodi.com/") -->
<svg
   xmlns="http://www.w3.org/2000/svg"
   xmlns:odm="http://product.corel.com/CGS/11/cddns/"
   xml:space="preserve"
   width="499pt"
   height="652pt"
   style="shape-rendering:geometricPrecision; text-rendering:geometricPrecision; image-rendering:optimizeQuality; fill-rule:evenodd"
   viewBox="0 0 8268 11692"
   xmlns:sodipodi="http://sodipodi.sourceforge.net/DTD/sodipodi-0.dtd"
   xmlns:xlink="http://www.w3.org/1999/xlink"
   id="svg686"
   sodipodi:version="0.34"
   sodipodi:docname="D:\Dokumenty\Wikipedie\images\svg\ASL\Sign language_L.svg"><sodipodi:namedview
   id="base" /><defs
   id="defs687"><style
   type="text/css"
   id="style688"><![CDATA[
    .fil0 {fill:#1F1A17}
   ]]></style></defs><g
   id="Layer 1"
   transform="matrix(1.290862,0,0,1.291237,-1418.73,-1693.53)"><path
   class="fil0"
   d="M3738 1395c37,-10 102,-14 195,-14 74,0 152,14 236,41 83,28 159,114 229,257 69,144 127,415 174,813 46,398 78,648 97,750 0,324 39,817 118,1479 78,662 118,1132 118,1410 28,74 55,148 83,222 65,-37 257,-123 577,-257 319,-134 553,-271 701,-410 102,-46 234,-92 396,-139 162,-46 303,-69 423,-69 112,0 237,23 375,69 84,65 149,130 195,195 46,65 55,143 28,236 -47,55 -153,120 -320,194 -166,74 -259,116 -278,125 -148,241 -458,498 -930,771 -472,273 -778,535 -917,785 -166,176 -370,338 -611,486 -241,148 -495,273 -764,375 -102,148 -183,308 -243,479 -60,172 -109,364 -146,577 -203,111 -421,226 -653,347 -231,120 -458,180 -680,180l-125 0c-185,-55 -363,-132 -535,-229 -171,-97 -354,-220 -548,-368 0,-157 30,-322 90,-493 60,-171 118,-340 173,-507 0,-259 -48,-676 -145,-1250 -98,-574 -146,-981 -146,-1222 0,-195 4,-336 14,-424 9,-88 41,-224 97,-409 55,-186 192,-301 410,-348 217,-46 400,-88 548,-125 19,-129 67,-226 146,-291 79,-65 285,-172 618,-320l264 84c176,-195 403,-292 681,-292 0,-204 0,-412 0,-625 0,-213 4,-431 13,-653l0 -167c0,-398 -32,-759 -97,-1083 37,-92 84,-153 139,-180zm28 111c-46,74 -70,166 -70,277 0,75 19,195 56,362 37,166 56,287 56,361l375 -42c111,0 166,23 166,69l111 0c-18,-138 -34,-284 -48,-437 -14,-153 -49,-280 -104,-382 -56,-65 -116,-125 -181,-181 -65,-55 -130,-83 -194,-83 -65,0 -121,19 -167,56zm694 1125c-111,-28 -222,-42 -333,-42 -111,0 -222,14 -333,42 -19,111 -28,194 -28,250 0,92 5,185 14,277 9,93 18,186 28,278l611 0c9,19 25,42 48,70 23,27 49,27 77,0 9,-47 14,-125 14,-236 0,-84 -5,-172 -14,-264 -10,-93 -19,-185 -28,-278l-56 -97zm-652 958c-10,120 -14,213 -14,278 0,166 55,268 166,305 10,65 47,121 111,167 65,46 167,69 306,69 111,-9 190,-13 236,-13 0,-158 -11,-297 -35,-417 -23,-120 -44,-245 -62,-375 -102,-37 -227,-56 -375,-56 -111,0 -222,14 -333,42zm0 597c-167,0 -313,23 -438,70 -125,46 -224,134 -299,264 28,194 49,419 63,673 14,255 21,530 21,827l0 500 55 83 28 -139c46,-93 97,-150 153,-174 55,-23 116,-20 180,7 93,19 149,98 167,236 19,139 42,218 70,237 64,-121 97,-278 97,-473 0,-55 -5,-145 -14,-270 -9,-125 -14,-220 -14,-285 0,-204 23,-389 69,-556 47,-166 88,-315 125,-444 -27,-130 -57,-232 -90,-306 -32,-74 -90,-157 -173,-250zm-834 278c-55,-28 -120,-42 -194,-42 -56,0 -111,12 -167,35 -55,23 -111,46 -167,70 -55,23 -108,85 -159,187 -51,102 -86,213 -104,333 138,602 277,1199 416,1792 37,-111 79,-227 125,-347 37,-19 79,-40 125,-63 47,-23 93,-21 139,7 37,-28 56,-74 56,-139 -10,-92 -14,-185 -14,-277l-361 111c-28,-37 -51,-74 -70,-111 74,0 155,-14 243,-42 88,-28 151,-46 188,-56l-56 -1458zm1181 28c-19,28 -12,51 21,69 32,19 48,33 48,42 10,102 -14,220 -69,354 -56,134 -88,225 -97,271 64,-37 132,-100 201,-188 69,-88 146,-192 229,-312 -9,74 -48,180 -118,319 -69,139 -104,218 -104,236 74,-18 137,-34 187,-48 51,-14 91,-49 119,-104 -19,92 -86,169 -202,229 -116,60 -224,118 -326,173l-28 987 444 -84c-64,-28 -120,-53 -166,-76 -47,-23 -88,-63 -125,-118 194,46 393,92 597,139 -148,-130 -250,-269 -306,-417 102,74 204,144 306,208 -46,-518 -93,-1041 -139,-1569 -157,-37 -315,-74 -472,-111zm-2042 430l56 -152 -56 152zm-42 98c-37,-10 -83,-14 -138,-14 -93,0 -183,25 -271,76 -88,51 -165,123 -229,215l-42 -125c-139,10 -232,79 -278,209 -37,166 -65,282 -83,347 157,120 319,167 486,139l-236 -236c28,18 60,37 97,55 37,19 74,33 111,42 -46,-130 -51,-213 -14,-250 102,139 181,275 236,410 56,134 130,349 223,645 111,139 185,209 222,209l28 -70c-28,-74 -21,-136 20,-187 42,-51 100,-95 174,-132l-139 -764 -167 -569zm5376 638c-112,-37 -246,-55 -403,-55 -380,0 -709,111 -986,333 18,37 60,86 125,146 64,60 101,123 111,188 -19,0 -97,-70 -236,-209 -130,19 -267,56 -410,111 -144,56 -271,116 -382,181l-28 111c-9,-56 -32,-76 -69,-62 -37,13 -88,44 -153,90 46,250 88,442 125,576 37,134 93,276 167,424 361,-259 726,-519 1097,-778 -9,-56 -14,-111 -14,-167l69 14 42 -69c37,37 74,74 111,111 46,-37 158,-146 334,-326 175,-181 337,-299 486,-355 9,-18 37,-32 83,-41 46,-10 65,-28 56,-56l-125 -167zm-6417 223c0,379 25,787 76,1222 51,435 123,880 215,1333 112,74 260,111 445,111 139,0 282,-30 430,-90 149,-60 292,-123 431,-187l-125 291c74,19 132,-11 174,-90 41,-79 85,-118 132,-118 157,231 347,347 569,347 -268,-102 -477,-273 -625,-514 0,-259 7,-470 21,-632 14,-162 53,-321 118,-479 -74,28 -174,-2 -299,-90 -125,-88 -192,-132 -201,-132 -46,0 -93,18 -139,55 -167,0 -292,-83 -375,-250 -74,-212 -130,-361 -167,-444 0,-139 -69,-208 -208,-208 -102,9 -176,14 -222,14 -37,0 -70,-10 -97,-28 -28,-19 -54,-44 -77,-77 -23,-32 -48,-44 -76,-34zm2389 500l152 14c-9,-10 -32,-14 -69,-14 -37,0 -65,0 -83,0zm-70 83c-74,102 -92,218 -55,347 83,28 203,14 361,-41 65,-121 39,-199 -77,-237 -115,-37 -192,-60 -229,-69zm-403 69l-41 -13 41 13zm1070 28c0,148 -53,260 -160,334 -106,74 -229,111 -368,111 -129,0 -236,-19 -319,-56 -93,148 -160,301 -202,458 -41,158 -62,343 -62,556 -84,56 -93,107 -28,153 111,129 225,236 340,319 116,84 248,125 396,125 398,-102 736,-224 1014,-368 278,-143 482,-359 611,-646 -55,-101 -95,-192 -118,-270 -23,-79 -44,-193 -62,-341l-42 -55c18,129 28,227 28,291 0,56 -10,98 -28,125 -83,-18 -139,-64 -167,-139 -18,-185 -37,-305 -55,-361 28,-185 -60,-277 -264,-277 -176,18 -347,32 -514,41zm-1681 28c-37,-9 -64,0 -83,28 -18,28 -18,55 0,83 102,19 157,-4 167,-69 -37,-28 -65,-42 -84,-42zm2528 0c-9,120 -9,215 0,285 9,69 33,118 70,146l-70 -431zm-2083 14c-56,93 -70,171 -42,236l181 14c102,-46 148,-83 139,-111 27,-84 9,-125 -56,-125 -139,0 -213,-5 -222,-14zm-875 2111l514 -208c0,74 -54,122 -160,146 -106,23 -225,44 -354,62zm639 42l-42 -98 -42 14c-64,167 -145,371 -243,611 -97,241 -146,440 -146,598 28,-37 75,-137 139,-299 65,-162 111,-266 139,-312 -9,111 -39,233 -90,368 -51,134 -109,266 -174,395 -46,0 -88,-4 -125,-13 0,-167 58,-405 174,-716 116,-310 183,-497 201,-562l-652 139c-121,-19 -241,-37 -362,-56 -64,185 -118,343 -159,472 -42,130 -63,250 -63,361 204,139 394,250 570,334 176,83 361,125 555,125 74,0 130,-5 167,-14 -9,-37 -14,-74 -14,-111 0,-37 0,-65 0,-84 0,-148 58,-400 174,-756 115,-357 178,-568 187,-632 -46,9 -88,48 -125,118 -37,69 -60,108 -69,118zm305 -125c-157,379 -261,648 -312,805 -51,158 -77,357 -77,597 47,28 88,42 125,42 65,0 135,-25 209,-76 74,-51 143,-100 208,-146 0,-139 37,-324 111,-556 74,-231 116,-384 125,-458l-389 -208zm222 1166l56 0c19,-139 76,-324 174,-555 97,-232 150,-371 159,-417 -166,287 -296,611 -389,972zm542 -958c-18,56 -37,107 -55,153l55 -153zm-167 389c-55,93 -94,176 -118,250 -23,74 -34,148 -34,222 37,-55 67,-139 90,-250 23,-111 44,-185 62,-222zm-138 -3236c18,-65 78,-97 180,-97 167,0 259,-5 278,-14 -83,92 -190,139 -320,139 -37,0 -83,-10 -138,-28zm2041 750l-69 -139 69 139zm-3194 -625l97 -28 -97 28zm-195 0l56 -14 -56 14z"
   id="path690" /></g></svg>
